<?xml version="1.0" encoding="UTF-8"?>
<svg xmlns="http://www.w3.org/2000/svg" xmlns:xlink="http://www.w3.org/1999/xlink" width="257pt" height="223pt" viewBox="0 0 257 223" version="1.1">
<g id="surface1">
<path style="fill:none;stroke-width:0.3985;stroke-linecap:butt;stroke-linejoin:miter;stroke:rgb(79.998779%,79.998779%,79.998779%);stroke-opacity:1;stroke-miterlimit:10;" d="M 0.00116346 -0.000314534 L 0.00116346 219.116397 M 12.703907 -0.000314534 L 12.703907 219.116397 M 25.406651 -0.000314534 L 25.406651 219.116397 M 38.105489 -0.000314534 L 38.105489 219.116397 M 50.808233 -0.000314534 L 50.808233 219.116397 M 63.510977 -0.000314534 L 63.510977 219.116397 M 76.213721 -0.000314534 L 76.213721 219.116397 M 88.916465 -0.000314534 L 88.916465 219.116397 M 101.619209 -0.000314534 L 101.619209 219.116397 M 114.321953 -0.000314534 L 114.321953 219.116397 M 127.024696 -0.000314534 L 127.024696 219.116397 M 139.72744 -0.000314534 L 139.72744 219.116397 M 152.430184 -0.000314534 L 152.430184 219.116397 M 165.132928 -0.000314534 L 165.132928 219.116397 M 177.835672 -0.000314534 L 177.835672 219.116397 M 190.538416 -0.000314534 L 190.538416 219.116397 M 203.24116 -0.000314534 L 203.24116 219.116397 M 215.943904 -0.000314534 L 215.943904 219.116397 M 228.642742 -0.000314534 L 228.642742 219.116397 M 241.345486 -0.000314534 L 241.345486 219.116397 M 254.04823 -0.000314534 L 254.04823 219.116397 " transform="matrix(1.00003,0,0,-1.00002,1.217587,221.148123)"/>
<path style="fill:none;stroke-width:0.3985;stroke-linecap:butt;stroke-linejoin:miter;stroke:rgb(79.998779%,79.998779%,79.998779%);stroke-opacity:1;stroke-miterlimit:10;" d="M 0.00116346 -0.000314534 L 254.04823 -0.000314534 M 0.00116346 10.956498 L 254.04823 10.956498 M 0.00116346 21.91331 L 254.04823 21.91331 M 0.00116346 32.866216 L 254.04823 32.866216 M 0.00116346 43.823028 L 254.04823 43.823028 M 0.00116346 54.77984 L 254.04823 54.77984 M 0.00116346 65.736652 L 254.04823 65.736652 M 0.00116346 76.689558 L 254.04823 76.689558 M 0.00116346 87.64637 L 254.04823 87.64637 M 0.00116346 98.603182 L 254.04823 98.603182 M 0.00116346 109.559994 L 254.04823 109.559994 M 0.00116346 120.516806 L 254.04823 120.516806 M 0.00116346 131.469712 L 254.04823 131.469712 M 0.00116346 142.426524 L 254.04823 142.426524 M 0.00116346 153.383337 L 254.04823 153.383337 M 0.00116346 164.340149 L 254.04823 164.340149 M 0.00116346 175.293055 L 254.04823 175.293055 M 0.00116346 186.249867 L 254.04823 186.249867 M 0.00116346 197.206679 L 254.04823 197.206679 M 0.00116346 208.163491 L 254.04823 208.163491 M 0.00116346 219.116397 L 254.04823 219.116397 " transform="matrix(1.00003,0,0,-1.00002,1.217587,221.148123)"/>
<path style="fill:none;stroke-width:0.19925;stroke-linecap:butt;stroke-linejoin:miter;stroke:rgb(50%,50%,50%);stroke-opacity:1;stroke-miterlimit:10;" d="M 0.00116346 -0.000314534 L 0.00116346 -0.000314534 M 12.703907 -0.000314534 L 12.703907 -0.000314534 M 25.406651 -0.000314534 L 25.406651 -0.000314534 M 38.105489 -0.000314534 L 38.105489 -0.000314534 M 50.808233 -0.000314534 L 50.808233 -0.000314534 M 63.510977 -0.000314534 L 63.510977 -0.000314534 M 76.213721 -0.000314534 L 76.213721 -0.000314534 M 88.916465 -0.000314534 L 88.916465 -0.000314534 M 101.619209 -0.000314534 L 101.619209 -0.000314534 M 114.321953 -0.000314534 L 114.321953 -0.000314534 M 127.024696 -0.000314534 L 127.024696 -0.000314534 M 139.72744 -0.000314534 L 139.72744 -0.000314534 M 152.430184 -0.000314534 L 152.430184 -0.000314534 M 165.132928 -0.000314534 L 165.132928 -0.000314534 M 177.835672 -0.000314534 L 177.835672 -0.000314534 M 190.538416 -0.000314534 L 190.538416 -0.000314534 M 203.24116 -0.000314534 L 203.24116 -0.000314534 M 215.943904 -0.000314534 L 215.943904 -0.000314534 M 228.642742 -0.000314534 L 228.642742 -0.000314534 M 241.345486 -0.000314534 L 241.345486 -0.000314534 M 254.04823 -0.000314534 L 254.04823 -0.000314534 M 0.00116346 219.116397 L 0.00116346 219.116397 M 12.703907 219.116397 L 12.703907 219.116397 M 25.406651 219.116397 L 25.406651 219.116397 M 38.105489 219.116397 L 38.105489 219.116397 M 50.808233 219.116397 L 50.808233 219.116397 M 63.510977 219.116397 L 63.510977 219.116397 M 76.213721 219.116397 L 76.213721 219.116397 M 88.916465 219.116397 L 88.916465 219.116397 M 101.619209 219.116397 L 101.619209 219.116397 M 114.321953 219.116397 L 114.321953 219.116397 M 127.024696 219.116397 L 127.024696 219.116397 M 139.72744 219.116397 L 139.72744 219.116397 M 152.430184 219.116397 L 152.430184 219.116397 M 165.132928 219.116397 L 165.132928 219.116397 M 177.835672 219.116397 L 177.835672 219.116397 M 190.538416 219.116397 L 190.538416 219.116397 M 203.24116 219.116397 L 203.24116 219.116397 M 215.943904 219.116397 L 215.943904 219.116397 M 228.642742 219.116397 L 228.642742 219.116397 M 241.345486 219.116397 L 241.345486 219.116397 M 254.04823 219.116397 L 254.04823 219.116397 " transform="matrix(1.00003,0,0,-1.00002,1.217587,221.148123)"/>
<path style="fill:none;stroke-width:0.19925;stroke-linecap:butt;stroke-linejoin:miter;stroke:rgb(50%,50%,50%);stroke-opacity:1;stroke-miterlimit:10;" d="M 0.00116346 -0.000314534 L 0.00116346 -0.000314534 M 0.00116346 10.956498 L 0.00116346 10.956498 M 0.00116346 21.91331 L 0.00116346 21.91331 M 0.00116346 32.866216 L 0.00116346 32.866216 M 0.00116346 43.823028 L 0.00116346 43.823028 M 0.00116346 54.77984 L 0.00116346 54.77984 M 0.00116346 65.736652 L 0.00116346 65.736652 M 0.00116346 76.689558 L 0.00116346 76.689558 M 0.00116346 87.64637 L 0.00116346 87.64637 M 0.00116346 98.603182 L 0.00116346 98.603182 M 0.00116346 109.559994 L 0.00116346 109.559994 M 0.00116346 120.516806 L 0.00116346 120.516806 M 0.00116346 131.469712 L 0.00116346 131.469712 M 0.00116346 142.426524 L 0.00116346 142.426524 M 0.00116346 153.383337 L 0.00116346 153.383337 M 0.00116346 164.340149 L 0.00116346 164.340149 M 0.00116346 175.293055 L 0.00116346 175.293055 M 0.00116346 186.249867 L 0.00116346 186.249867 M 0.00116346 197.206679 L 0.00116346 197.206679 M 0.00116346 208.163491 L 0.00116346 208.163491 M 0.00116346 219.116397 L 0.00116346 219.116397 M 254.04823 -0.000314534 L 254.04823 -0.000314534 M 254.04823 10.956498 L 254.04823 10.956498 M 254.04823 21.91331 L 254.04823 21.91331 M 254.04823 32.866216 L 254.04823 32.866216 M 254.04823 43.823028 L 254.04823 43.823028 M 254.04823 54.77984 L 254.04823 54.77984 M 254.04823 65.736652 L 254.04823 65.736652 M 254.04823 76.689558 L 254.04823 76.689558 M 254.04823 87.64637 L 254.04823 87.64637 M 254.04823 98.603182 L 254.04823 98.603182 M 254.04823 109.559994 L 254.04823 109.559994 M 254.04823 120.516806 L 254.04823 120.516806 M 254.04823 131.469712 L 254.04823 131.469712 M 254.04823 142.426524 L 254.04823 142.426524 M 254.04823 153.383337 L 254.04823 153.383337 M 254.04823 164.340149 L 254.04823 164.340149 M 254.04823 175.293055 L 254.04823 175.293055 M 254.04823 186.249867 L 254.04823 186.249867 M 254.04823 197.206679 L 254.04823 197.206679 M 254.04823 208.163491 L 254.04823 208.163491 M 254.04823 219.116397 L 254.04823 219.116397 " transform="matrix(1.00003,0,0,-1.00002,1.217587,221.148123)"/>
</g>
</svg>
