<?xml version="1.0" encoding="UTF-8"?>
<svg xmlns="http://www.w3.org/2000/svg" xmlns:xlink="http://www.w3.org/1999/xlink" width="242pt" height="209pt" viewBox="0 0 242 209" version="1.1">
<g id="surface1">
<path style="fill:none;stroke-width:0.3985;stroke-linecap:butt;stroke-linejoin:miter;stroke:rgb(0%,0%,0%);stroke-opacity:1;stroke-miterlimit:10;" d="M 1.993291 34.368563 L 237.111238 34.368563 " transform="matrix(1.00003,0,0,-1,1.096493,208.017)"/>
<path style=" stroke:none;fill-rule:nonzero;fill:rgb(0%,0%,0%);fill-opacity:1;" d="M 1.097656 173.648438 L 4.285156 175.242188 L 3.089844 173.648438 L 4.285156 172.054688 "/>
<path style=" stroke:none;fill-rule:nonzero;fill:rgb(0%,0%,0%);fill-opacity:1;" d="M 240.207031 173.648438 L 237.019531 172.054688 L 238.214844 173.648438 L 237.019531 175.242188 "/>
<path style="fill:none;stroke-width:0.3985;stroke-linecap:butt;stroke-linejoin:miter;stroke:rgb(0%,0%,0%);stroke-opacity:1;stroke-miterlimit:10;" d="M 39.85153 1.993563 L 39.85153 204.227938 " transform="matrix(1.00003,0,0,-1,1.096493,208.017)"/>
<path style=" stroke:none;fill-rule:nonzero;fill:rgb(0%,0%,0%);fill-opacity:1;" d="M 40.949219 208.015625 L 42.542969 204.828125 L 40.949219 206.023438 L 39.355469 204.828125 "/>
<path style=" stroke:none;fill-rule:nonzero;fill:rgb(0%,0%,0%);fill-opacity:1;" d="M 40.949219 1.796875 L 39.355469 4.984375 L 40.949219 3.789062 L 42.542969 4.984375 "/>
<path style="fill:none;stroke-width:0.99628;stroke-linecap:butt;stroke-linejoin:miter;stroke:rgb(100%,0%,0%);stroke-opacity:1;stroke-miterlimit:1;" d="M 79.701897 171.849031 C 92.986655 114.567781 132.833116 80.196688 199.252998 68.739656 " transform="matrix(1.00003,0,0,-1,1.096493,208.017)"/>
</g>
</svg>
