<?xml version="1.0" encoding="UTF-8"?>
<svg xmlns="http://www.w3.org/2000/svg" xmlns:xlink="http://www.w3.org/1999/xlink" width="242pt" height="209pt" viewBox="0 0 242 209" version="1.1">
<defs>
<clipPath id="clip1">
  <path d="M 1.898438 1.597656 L 241.003906 1.597656 L 241.003906 207.828125 L 1.898438 207.828125 Z M 1.898438 1.597656 "/>
</clipPath>
</defs>
<g id="surface1">
<g clip-path="url(#clip1)" clip-rule="nonzero">
<path style="fill:none;stroke-width:0.99628;stroke-linecap:butt;stroke-linejoin:miter;stroke:rgb(100%,0%,0%);stroke-opacity:1;stroke-miterlimit:10;" d="M 0.0014375 206.231344 L 9.962375 189.403219 L 19.923312 173.293844 L 29.888156 157.895406 L 39.849094 143.215719 L 49.813937 129.254781 L 59.774875 116.004781 L 69.739719 103.473531 L 79.700656 91.661031 L 89.661594 80.559469 L 99.626437 70.176656 L 109.587375 60.508688 L 119.552219 51.559469 L 129.513156 43.325094 L 139.478 35.805563 L 149.438938 29.004781 L 159.399875 22.914938 L 169.364719 17.543844 L 179.325656 12.8915 L 189.2905 8.950094 L 199.251438 5.731344 L 209.212375 3.223531 L 219.177219 1.434469 L 229.138156 0.356344 L 239.103 0.000875 " transform="matrix(1,0,0,-1,1.897,207.829)"/>
</g>
</g>
</svg>
