<?xml version="1.0" encoding="UTF-8"?>
<svg xmlns="http://www.w3.org/2000/svg" xmlns:xlink="http://www.w3.org/1999/xlink" width="242pt" height="209pt" viewBox="0 0 242 209" version="1.1">
<defs>
<clipPath id="clip1">
  <path d="M 1.898438 1.597656 L 241.003906 1.597656 L 241.003906 207.832031 L 1.898438 207.832031 Z M 1.898438 1.597656 "/>
</clipPath>
</defs>
<g id="surface1">
<g clip-path="url(#clip1)" clip-rule="nonzero">
<path style="fill:none;stroke-width:0.99628;stroke-linecap:butt;stroke-linejoin:miter;stroke:rgb(100%,0%,0%);stroke-opacity:1;stroke-miterlimit:10;" d="M 0.0014375 -0.000439628 L 9.962375 0.358917 L 19.923312 1.433082 L 29.888156 3.222055 L 39.849094 5.729743 L 49.813937 8.952238 L 59.774875 12.889541 L 69.739719 17.541652 L 79.700656 22.912477 L 89.661594 29.002016 L 99.626437 35.802458 L 109.587375 43.321613 L 119.552219 51.555576 L 129.513156 60.508254 L 139.478 70.171833 L 149.438938 80.558032 L 159.399875 91.655134 L 169.364719 103.470949 L 179.325656 116.001573 L 189.2905 129.247004 L 199.251438 143.21115 L 209.212375 157.890103 L 219.177219 173.287771 L 229.138156 189.396341 L 239.103 206.223624 " transform="matrix(1,0,0,-1.00005,1.897,207.831592)"/>
</g>
</g>
</svg>
