<?xml version="1.0" encoding="UTF-8"?>
<svg xmlns="http://www.w3.org/2000/svg" xmlns:xlink="http://www.w3.org/1999/xlink" width="242pt" height="209pt" viewBox="0 0 242 209" version="1.1">
<defs>
<clipPath id="clip1">
  <path d="M 1.898438 1.597656 L 241.003906 1.597656 L 241.003906 207.828125 L 1.898438 207.828125 Z M 1.898438 1.597656 "/>
</clipPath>
</defs>
<g id="surface1">
<g clip-path="url(#clip1)" clip-rule="nonzero">
<path style="fill:none;stroke-width:0.99628;stroke-linecap:butt;stroke-linejoin:miter;stroke:rgb(100%,0%,0%);stroke-opacity:1;stroke-miterlimit:10;" d="M 0.0014375 -0.000125 L 9.962375 26.2655 L 19.923312 48.136594 L 29.888156 66.956906 L 39.849094 83.480344 L 49.813937 98.163938 L 59.774875 111.328 L 69.739719 123.187375 L 79.700656 133.913938 L 89.661594 143.628781 L 99.626437 152.433469 L 109.587375 160.406125 L 119.552219 167.605344 L 129.513156 174.085813 L 139.478 179.894406 L 149.438938 185.058469 L 159.399875 189.613156 L 169.364719 193.581906 L 179.325656 196.98425 L 189.2905 199.835813 L 199.251438 202.152219 L 209.212375 203.945188 L 219.177219 205.218625 L 229.138156 205.980344 L 239.103 206.230344 " transform="matrix(1,0,0,-1,1.897,207.828)"/>
</g>
</g>
</svg>
