<?xml version="1.0" encoding="UTF-8"?>
<svg xmlns="http://www.w3.org/2000/svg" xmlns:xlink="http://www.w3.org/1999/xlink" width="242pt" height="209pt" viewBox="0 0 242 209" version="1.1">
<defs>
<clipPath id="clip1">
  <path d="M 1.898438 1.597656 L 241.003906 1.597656 L 241.003906 207.832031 L 1.898438 207.832031 Z M 1.898438 1.597656 "/>
</clipPath>
</defs>
<g id="surface1">
<g clip-path="url(#clip1)" clip-rule="nonzero">
<path style="fill:none;stroke-width:0.99628;stroke-linecap:butt;stroke-linejoin:miter;stroke:rgb(100%,0%,0%);stroke-opacity:1;stroke-miterlimit:10;" d="M 0.0014375 206.223624 L 9.962375 205.868173 L 19.923312 204.794008 L 29.888156 203.001129 L 39.849094 200.497348 L 49.813937 197.274853 L 59.774875 193.33755 L 69.739719 188.681533 L 79.700656 183.310707 L 89.661594 177.225074 L 99.626437 170.420727 L 109.587375 162.901572 L 119.552219 154.667608 L 129.513156 145.718837 L 139.478 136.051352 L 149.438938 125.669058 L 159.399875 114.568051 L 169.364719 102.756141 L 179.325656 90.221612 L 189.2905 76.97618 L 199.251438 63.012035 L 209.212375 48.333081 L 219.177219 32.93932 L 229.138156 16.826844 L 239.103 -0.000439628 " transform="matrix(1,0,0,-1.00005,1.897,207.831592)"/>
</g>
</g>
</svg>
